<?xml version="1.0" encoding="utf-8"?>
<!-- Generator: Adobe Illustrator 21.0.0, SVG Export Plug-In . SVG Version: 6.00 Build 0)  -->
<svg version="1.1" id="Layer_1" xmlns="http://www.w3.org/2000/svg" xmlns:xlink="http://www.w3.org/1999/xlink" x="0px" y="0px"
	 viewBox="0 0 793.4 871.3" style="enable-background:new 0 0 793.4 871.3;" xml:space="preserve">
<style type="text/css">
	.st0{fill:#FFFFFF;}
	.st1{enable-background:new    ;}
</style>
<title>blood rose biker</title>
<g id="BLDY_RXSE_Image">
	<path class="st0" d="M442.9,0c8.3,0.7,16.6,1,24.8,2.2c8.5,1.2,17.2,2.2,25.2,5.2c9.6,3.6,13,13.1,9.7,22.7
		c-2.3,7-7.7,10.6-15.6,12c5.7,3.1,9.4,6.9,9.2,13.3c-0.2,5.4,0,10.9,0,16.8c-4.8-0.5-9.9-0.8-14.9-1.7c-1.2-0.2-2.9-2.2-3.1-3.6
		c-0.6-3.8-0.4-7.6-0.7-11.4c-0.4-5.4-2.6-7.8-8-8.5c-5.2-0.6-10.5-0.9-16.2-1.4L451.5,68l-17.8-1.1L436.9,0H442.9z M454.4,31.8
		c7.5,0.4,14.2,1,21,1.1c4.3,0.1,7.8-1.7,8.6-6.6c0.7-4.2-1.6-7.7-6.9-8.7c-6.9-1.3-14-1.8-21.5-2.7L454.4,31.8z"/>
	<path class="st0" d="M66.9,117.9c8.7-1.8,15.7-0.3,20.4,7.3c3.5,5.8,3.8,11.8-0.4,17.3c-2.6,3.5-5.7,6.5-9.3,8.9
		c-12.2,7.7-24.7,15-37.5,22.6L0,118.9c15.2-8.5,29.9-16.9,44.9-24.7c3.8-1.9,8.7-2.1,13.1-2c6,0.1,10.2,3.8,12.7,9.2
		c2.4,5,1.4,9.7-2.1,13.9C68.1,116,67.7,116.7,66.9,117.9z M48.3,152.8c6.4-4.1,12.7-7.5,18.3-11.9c1.6-1.3,2.5-5.3,1.8-7.3
		c-0.6-1.7-4.1-2.5-6.5-3.2c-1.1-0.3-2.6,0.4-3.8,1c-5.8,3.2-11.5,6.5-17.7,10L48.3,152.8z M25.8,120l7.5,10.7
		c5.6-3.4,10.8-6.4,15.8-9.6c3.1-2,5.6-4.8,3.6-8.7s-6-3.6-9.2-2.1C37.5,113.1,31.9,116.6,25.8,120z"/>
	<path class="st0" d="M206.3,96.9l-21.9-63.5c17-4.2,32.6-11.9,50.3-10.3c12.8,1.1,21.9,7.6,26.2,19.8c4.4,12.6,4.3,25-6,34.6
		c-4.9,4.6-11.5,8-17.8,10.4C227.2,91.5,217,93.8,206.3,96.9z M208.9,40.7l11.6,37.5c9.2-2.2,18.5-3.7,22-13.7
		c2.9-7.7,0.8-16.4-5.2-22.1C228.9,34.1,219.3,37.6,208.9,40.7z"/>
	<path class="st0" d="M625.8,77.8c5.2,1.6,10.1,2.9,14.9,4.7c1,0.4,2,2.4,2.1,3.7c0.6,8.5,12.1,16.9,20.3,14.4
		c1.5-0.5,3.6-2,3.8-3.3c0.1-1.9-0.6-3.7-2-5c-3.5-2.5-7.2-4.8-11-6.8c-3.3-2-6.7-3.7-9.9-5.9c-8.3-5.8-11.2-13-8.9-21.4
		s9-14.3,18.6-14.8c14-0.9,27.7,4.5,37.4,14.6c6.5,6.6,7.2,14.6,3.2,22.8c-5-2-10.2-3.8-15.1-6.1c-1-0.5-1.9-2.4-2-3.8
		c-0.5-7.9-11.8-15.4-19.2-12.6c-4.2,1.6-4.8,5.7-0.9,8.4c4.4,3,9.2,5.4,13.7,8.2c3.4,2,6.7,4.3,9.8,6.9c5.4,4.7,7.8,10.8,5.9,18
		c-2,7.4-6.7,12.6-14.2,14.7c-14.2,4-37.7-5.6-45.1-18.3C623.7,90.5,623.3,85.4,625.8,77.8z"/>
	<path class="st0" d="M739.1,76.1l54.3,29.5l-8,12l-35.3-19.7l-6.5,10.8l26.7,14.9l-7.7,11.9l-26.3-14.4l-6.3,10.7l34.1,19.4
		l-7.9,11.6l-49.8-27.2L739.1,76.1z"/>
	<path class="st0" d="M572.8,36.6c6-4.1,11.3-8.2,16.9-11.6c2.2-1.2,4.8-1.7,7.3-1.2c5.8,1.1,11.5,3,18.1,4.8l-35.1,23l16.9,42.1
		c-8-2.2-14.6-3.9-21.2-5.9c-0.9-0.3-1.4-2.1-2-3.3c-3-7-6-14-9.3-21.8c-6,4.9-11.7,9.4-17.1,14.2c-3,2.7-5.8,3.8-9.9,2.6
		c-4.4-1.3-9.1-1.8-15.2-2.9l35-29l-19.6-36.7c8,1.6,15.4,2.9,22.6,4.6c1.1,0.3,2.2,1.9,2.8,3.1C566.4,24.1,569.4,30.1,572.8,36.6z"
		/>
	<path class="st0" d="M357.7,1.1c-5.3,9.1-9.8,17.8-15.3,25.9c-7.6,11.2-11.7,22.9-7.7,36.5c0.6,2,0.3,4.2,0.5,6.8l-17.5,1.9
		c-1-6.3-2-12-2.6-17.8c-0.5-4.6-1.9-8.5-5.4-11.9c-9.2-8.9-18-18.2-27.1-27.3c-1.4-1.2-2.8-2.2-4.4-3.1l1-1.6
		c6.9-1.1,13.7-2.4,20.5-3.2c1.2-0.1,2.9,1.3,4,2.4c5.9,6.1,11.7,12.2,17.9,18.8c3.8-7.3,7.7-14,11-21.1c1.6-3.5,3.8-4.9,7.5-5.1
		C345.8,2.3,351.2,1.7,357.7,1.1z"/>
	<path class="st0" d="M94.8,67.9l19.6-8.7l22.6,47.7l34.1-13.2l5.1,12.7l-51,20.9L94.8,67.9z"/>
</g>
<g id="est._2500">
	<g class="st1">
		<path class="st0" d="M162.2,853.9v-57.3h42.5v9.7h-30.9V819h28.8v9.6h-28.8v15.6h32v9.6H162.2z"/>
	</g>
	<g class="st1">
		<path class="st0" d="M220.3,835.2l11.2-1.1c0.7,3.8,2.1,6.5,4.1,8.3c2.1,1.8,4.9,2.7,8.4,2.7c3.7,0,6.5-0.8,8.4-2.4
			c1.9-1.6,2.8-3.4,2.8-5.5c0-1.4-0.4-2.5-1.2-3.5c-0.8-1-2.2-1.8-4.2-2.5c-1.4-0.5-4.4-1.3-9.3-2.5c-6.2-1.5-10.5-3.4-13-5.7
			c-3.5-3.2-5.3-7-5.3-11.5c0-2.9,0.8-5.6,2.5-8.2c1.7-2.5,4-4.5,7.1-5.8c3.1-1.3,6.9-2,11.3-2c7.2,0,12.6,1.6,16.2,4.7
			c3.6,3.2,5.5,7.4,5.7,12.6l-11.6,0.5c-0.5-2.9-1.6-5.1-3.2-6.3c-1.6-1.3-4.1-1.9-7.3-1.9c-3.4,0-6,0.7-7.9,2.1
			c-1.2,0.9-1.8,2.1-1.8,3.6c0,1.4,0.6,2.5,1.7,3.5c1.5,1.2,5,2.5,10.6,3.8s9.8,2.7,12.5,4.1c2.7,1.4,4.8,3.4,6.3,5.8
			s2.3,5.5,2.3,9.1c0,3.3-0.9,6.4-2.7,9.2c-1.8,2.9-4.4,5-7.7,6.4c-3.3,1.4-7.5,2.1-12.5,2.1c-7.2,0-12.8-1.7-16.7-5
			C223.3,846.5,221,841.7,220.3,835.2z"/>
	</g>
	<g class="st1">
		<path class="st0" d="M298.2,853.9v-47.6h-17v-9.7h45.5v9.7h-17v47.6H298.2z"/>
	</g>
	<g class="st1">
		<path class="st0" d="M345.5,853.9v-11h11v11H345.5z"/>
	</g>
	<g class="st1">
		<path class="st0" d="M445.2,843.7v10.2h-38.5c0.4-3.9,1.7-7.5,3.8-11c2.1-3.5,6.2-8,12.3-13.7c4.9-4.6,8-7.7,9.1-9.4
			c1.5-2.3,2.3-4.5,2.3-6.7c0-2.4-0.7-4.3-2-5.6c-1.3-1.3-3.1-2-5.4-2c-2.3,0-4.1,0.7-5.5,2.1c-1.4,1.4-2.1,3.7-2.3,6.9l-10.9-1.1
			c0.7-6,2.7-10.4,6.1-13c3.4-2.6,7.7-3.9,12.9-3.9c5.7,0,10.1,1.5,13.3,4.6c3.2,3,4.8,6.8,4.8,11.4c0,2.6-0.5,5-1.4,7.4
			c-0.9,2.3-2.4,4.8-4.4,7.3c-1.3,1.7-3.7,4.1-7.2,7.3c-3.5,3.2-5.7,5.3-6.6,6.3c-0.9,1-1.7,2.1-2.2,3H445.2z"/>
	</g>
	<g class="st1">
		<path class="st0" d="M466.4,839.2l10.9-1.1c0.3,2.5,1.2,4.4,2.8,5.9c1.5,1.4,3.3,2.2,5.3,2.2c2.3,0,4.2-0.9,5.8-2.8
			c1.6-1.9,2.4-4.7,2.4-8.4c0-3.5-0.8-6.2-2.4-7.9c-1.6-1.8-3.6-2.6-6.2-2.6c-3.2,0-6,1.4-8.5,4.2l-8.9-1.3l5.6-29.8h29v10.3h-20.7
			l-1.7,9.7c2.4-1.2,4.9-1.8,7.5-1.8c4.9,0,9,1.8,12.4,5.3c3.4,3.5,5.1,8.1,5.1,13.8c0,4.7-1.4,8.9-4.1,12.6
			c-3.7,5.1-8.9,7.6-15.5,7.6c-5.3,0-9.6-1.4-12.9-4.3C469,847.8,467,843.9,466.4,839.2z"/>
		<path class="st0" d="M545.3,796.4c5.5,0,9.9,2,13,5.9c3.7,4.7,5.6,12.5,5.6,23.3c0,10.8-1.9,18.6-5.6,23.4
			c-3.1,3.9-7.4,5.9-13,5.9c-5.6,0-10.1-2.1-13.5-6.4c-3.4-4.3-5.1-11.9-5.1-22.9c0-10.8,1.9-18.5,5.6-23.3
			C535.4,798.3,539.7,796.4,545.3,796.4z M545.3,805.5c-1.3,0-2.5,0.4-3.6,1.3c-1,0.8-1.8,2.4-2.4,4.6c-0.8,2.8-1.1,7.6-1.1,14.3
			s0.3,11.3,1,13.8c0.7,2.5,1.5,4.2,2.6,5c1,0.8,2.2,1.2,3.5,1.2s2.5-0.4,3.6-1.3c1-0.8,1.8-2.4,2.4-4.6c0.8-2.8,1.1-7.6,1.1-14.3
			s-0.3-11.3-1-13.8c-0.7-2.5-1.5-4.2-2.6-5C547.8,805.9,546.6,805.5,545.3,805.5z"/>
		<path class="st0" d="M605.7,796.4c5.5,0,9.9,2,13,5.9c3.7,4.7,5.6,12.5,5.6,23.3c0,10.8-1.9,18.6-5.6,23.4
			c-3.1,3.9-7.4,5.9-13,5.9c-5.6,0-10.1-2.1-13.5-6.4c-3.4-4.3-5.1-11.9-5.1-22.9c0-10.8,1.9-18.5,5.6-23.3
			C595.9,798.3,600.2,796.4,605.7,796.4z M605.7,805.5c-1.3,0-2.5,0.4-3.6,1.3c-1,0.8-1.8,2.4-2.4,4.6c-0.8,2.8-1.1,7.6-1.1,14.3
			s0.3,11.3,1,13.8c0.7,2.5,1.5,4.2,2.6,5c1,0.8,2.2,1.2,3.5,1.2s2.5-0.4,3.6-1.3c1-0.8,1.8-2.4,2.4-4.6c0.8-2.8,1.1-7.6,1.1-14.3
			s-0.3-11.3-1-13.8c-0.7-2.5-1.5-4.2-2.6-5C608.3,805.9,607.1,805.5,605.7,805.5z"/>
	</g>
</g>
<g id="Layer_7">
	<path class="st0" d="M182.5,309.8c0.7-2.9,1.2-5.8,2-8.6c0.6-1.4,1.4-2.7,2.4-3.9c1.2,0.9,3.1,1.5,3.6,2.7c2.2,5,4.4,10,5.6,15.2
		c0.6,2.6-0.2,6.1-1.5,8.5c-2.8,5.3-8.2,5.2-12.1,0.1L182.5,309.8z"/>
	<path class="st0" d="M462.7,504.6c12,23.7,23.7,45.9,34.5,68.5c13,27.1,20.5,56.2,30.2,84.5c6.3,18.4,14.5,36.1,21.9,54.1
		c1.1,2.8,2.3,5.5,3.3,8.3c1.2,3.7,1.6,7.5-2.4,9.7s-8.3,2.2-11.6-1c-2.5-2.4-4.4-5.4-5.7-8.6c-11.3-29.1-22.7-58.2-33.3-87.6
		c-10.8-29.9-21.6-59.8-36.5-87.9c-0.6-1.2-1.3-2.3-1.9-3.4c-6.3,1.3-10.5,4.3-13.9,10c-17.4,29.2-42.5,48.6-75.7,57
		c-25.3,6.4-44.8-3.6-61.9-26.3c-3.9-5.2-2.8-9.8,3.1-14.8c11-9.2,23.8-16.1,37.6-20.1c21.2-6.5,42.9-6.3,64.8-5.6
		c11,0.3,22.2-1.5,33.2-2.7c3.2-0.3,6.1-2.1,9.8-3.4c-3.9-6.8-7.3-13-11-19.1c-7-11.5-14.1-23-21.4-34.3c-1.2-1.5-3-2.5-5-2.8
		c-6.1-0.7-12.7-2.5-18.3-0.9c-5.4,1.5-9.5,6.9-14.7,9.9c-33.5,19.5-67.4,20.9-100.4-0.4c-13-8.4-24.4-19.5-36.4-29.6
		c-3.8-3.2-3.3-6,1-7.4c18.7-6.1,37.6-11.3,57.5-11.7c17.3-0.4,33.1,4.5,48.2,12.5c12,6.3,24.2,12.7,36.8,17.8
		c8.2,3.3,17.3,4.2,26.5,5.7c-15.4-28.1-23.7-58.1-28.6-88.8l17.1-6.4c1.9,7.2,4,14.6,5.9,22c1.4,5.6,2.8,11.3,3.8,17
		c2.6,14.1,7.7,27.6,15.1,39.9c8.1,13.6,15.9,27.3,24,41.2c11.5-3.2,20.5-9.8,28.2-18.2c13.7-14.8,26.5-30.3,42.8-42.6
		c18.8-14.2,39.5-23.8,63.1-26.9c11.7-1.5,16.8,2.2,16.9,14.1c0.1,8.6,0.1,17.4-1.2,25.9c-2.4,15.5-11.1,27.3-24.1,35.8
		c-26,16.9-54.7,23.1-85.3,20.3c-9.1-0.8-17.9-3.5-27-4.9C468.8,502.9,465.6,504.1,462.7,504.6z M601.7,454.2l-1-1.9l-45.1,9.2v-1
		l46.7-39.2c-3.2-4.3-5.2-1.7-7.1,0c-8.8,7.6-17.5,15.4-26.3,23c-1.3,1.1-2.7,2-4.7,3.4c0.9-11,6.8-18.1,12.2-26
		c-3.2,1.2-6.6,2.6-8.3,5.1c-3,4.5-6.6,9.5-7.2,14.6c-1.2,10.5-8,15.2-15.8,19.8c-3.6,2.1-7,4.5-10.5,6.7c-1.5,0.8-3.1,1.4-4.7,2
		l3.3-25.9c-4.3,1.8-6.1,5.3-5.7,10.5c0.3,5,0.3,10,0,15c0,1.2-0.3,3-1.1,3.5c-7.4,4-14.8,7.8-22.9,11.9v-12.6
		c-6.4,3.2-4.9,8.8-4.5,13.9c-7.1,4.6-16.2,4.9-22,12c2,0.5,4.1,0.4,6-0.2c9-3.8,17.9-8,27-11.8c1.6-0.7,3.3-0.8,4.9-0.3
		c8.4,3.1,16.8,6.2,25.1,9.7c5.9,2.5,10.7,0.4,16.4-2.2l-38-10.8c8.9-5.3,16.6-10,24.4-14.4c2.3-1.2,4.8-1.9,7.4-2.2
		c15.2-2.4,30.5-4.6,45.7-7.2C598.1,458.2,599.8,455.7,601.7,454.2L601.7,454.2z M391,475.1c-17.1-11.4-36.1-10.8-53-13.8
		c-5.2-4.1-2-13.2-11.3-14.1l4.4,12.9c-1.8-0.1-3-0.2-4.1-0.2c-9.1-0.2-17.5-1.7-21.4-11.7c-1.1-2.9-3.5-2.8-6.1-1.3l5.2,10
		c-17.4-0.5-33.9-5.2-50.8-2.7c17.4,6.2,36,5.7,53.8,9.2l0.9,1.5l-18.8,16.1c5.5,4,5.8,4.3,10.5-0.4c4.9-4.9,9.2-10.3,14.4-16.3
		l36.5,4.4l-30.2,24.8c8,2.3,8.1,2.4,12.5-1.7c6.2-5.7,12.5-11.5,18.4-17.6c5.3-5.3,5.8-5.6,13.2-2.7l1.8,17.2
		c4.8-1,4.8-1.1,4.3-4.7c-0.5-3.8-1.1-7.7-1.7-11.8L391,475.1z M407,563.1l-16.8,29.8l0.8,0.9c3.4-2.4,8-4.1,9.9-7.3
		c4.1-7,6.8-14.8,10.3-22.1c0.8-1.8,2.2-3.3,3.9-4.2c7.8-3.3,15.8-6.1,23.7-9.3c1.8-0.7,3.1-2.6,4.6-4l-1-1.7l-20.3,7.6
		c-5.9-6.1-5.9-6.1-10.5-5l6.7,6.8c-6.2,2-11.1,3.2-15.8,5.2c-5.6,2.3-10,2.1-13.6-3.4c-1.6-2.5-4.1-4.3-6.3-6.4
		c-3-2.9-4.3-3-7.9-1.1l16.2,13.6l-0.7,1.4c-8.2,1.5-16.3,3.1-24.5,4.3c-2,0.3-4.3-0.6-6.2-1.4c-6.3-2.5-12.3-5.7-18.8-7.7
		c-2.2-0.7-5.3,1-8,1.6l0.2,1.6c7.6,1.1,15.3,1.7,22.6,8.2c-8.3,0.7-15.2,1.3-22.1,1.8c-6.5,0.5-13,0.6-19.4,1.3
		c-1.3,0.1-2.4,1.8-3.6,2.7c1.4,0.5,2.8,1.6,4.1,1.5c6.2-0.3,12.3-0.8,18.4-1.4c12.3-1.1,24.5-2.4,38.3-3.7l-35.7,23.6l0.4,1.9
		c2.5-0.2,5.6,0.6,7.3-0.6c11.5-8.2,22.7-16.8,34-25.3c0.9-0.7,1.6-1.9,2.6-2.2C388.5,567.7,397.2,565.5,407,563.1L407,563.1z"/>
	<path class="st0" d="M430.4,320.7c-5.1,18-7,36.3-22.4,48.5c-10.8,8.5-22.4,10.4-34.9,3.4c-4.7-2.6-9.3-5.2-14.1-7.5
		c-8.8-4.3-17.6-4.5-26.4,0c-1.8,0.9-3.6,1.7-5.4,2.6c-8.5,4.3-16.1,2.9-23-3.3c-1.9-1.7-3.7-3.4-5.4-5.2
		c-9.8-10.3-20.1-19.9-33.2-22.5l24.5-23.6c10.8,3.7,24.8,3,38.8-1.9c4.6-1.6,7.8,0.6,11.3,3.4c12.5,9.9,24.8,20.1,37.9,29.3
		c12.4,8.7,20.5,5.5,23.7-9.5c1.5-7,5.1-9.4,11.2-10.4C418.4,323.2,423.7,322,430.4,320.7z"/>
	<path class="st0" d="M405.6,320.3c-1.4-9.3-2.8-18.4-4-27.6c-0.1-1.3,0.3-2.6,1-3.7c7.2-13.1,16.1-24.7,29.2-32.8
		c9.2-5.7,16.7-13.3,19.3-24.5c0.2-0.9,0.8-1.8,1.5-2.4c16.3-13.5,27.4-30.6,34.8-50.3c0.2-0.4,0.4-0.9,0.7-1.2c0-0.1,0.3,0,1.9-0.3
		c0.1,9.3,1.3,18.7,0,27.6c-1.5,10.4-5,20.6-7.8,30.8c-2.8,10.4-6.3,20.6-8.7,31.1c-1.5,6.7-4.5,11.5-11.4,13
		c-12.5,2.6-20.1,10-24,22c-2.7,8.2-9.1,12.9-17.5,14.7C415.3,317.9,410.2,319.2,405.6,320.3z"/>
	<path class="st0" d="M434.7,337.4c0.3-6.5,0.7-12.3,1-18.1c0-0.5,0-1,0.2-1.5c4.6-8.4,8.8-17.1,14.1-25.1c2-2.9,6.4-5,10.1-5.9
		c12.6-3,18.1-10.4,19.9-23.3c1.5-11,7.1-21.4,10.2-32.3c3-10.3,5.1-20.9,7.3-30.3l22.7,14.4c-5.5,11.6-8.4,24.2-8.5,37
		c0,5.5,0,11-0.4,16.5c-1,11.8-6.6,21.5-14,30.3C480.7,318.8,460,331.3,434.7,337.4z"/>
	<path class="st0" d="M354.3,295.3c2.3,9.1,7.6,15.8,17.6,17.1s16.5-4.8,23-12.1c2.7,12,2,24.5-2.2,36.1c-1.5,4.4-4.2,5.2-8.3,2.3
		c-11.8-8.3-24.2-16.1-34.9-25.8c-9-8-17-10.6-28.8-6.7c-32.8,10.9-67.5-12.4-70.8-45.7l38.9-13.9c0,2.2,0.2,5.1,0,8
		c-0.9,13.3,3,22,21.1,28.4c3.6,1.2,6.9,3,9.9,5.3c9.4,7.3,20.1,8.2,31.3,7.1c0.8-0.1,1.6-0.3,2.5-0.4
		C353.7,295,353.9,295.1,354.3,295.3z"/>
	<path class="st0" d="M327,180.9c-3.6-1.9-6.3-3.6-9.2-4.7c-8.7-3.4-16.2-0.9-21.1,7c-6.2,10-12.4,20-18.5,30.1
		c-6.4,10.5-4.7,17.3,7.5,27.4l-23.4,10.9c0-13.9-5.7-25.1-9.9-36.8c-1-2.8-1.9-5.7-2.6-8.6c-1.8-7.8-1.4-7.3,4.9-11.9
		c4.2-3.3,7.7-7.3,10.4-11.8c3.6-5.8,5.9-12.3,9.3-18.2c5.2-9,12.1-12,22.3-10c2.6,0.5,5.1,1.4,7.7,2c9.1,2.2,18.2,4.5,27.8,6.8
		L327,180.9z"/>
	<path class="st0" d="M334.5,285.8c-7.2,0.3-10.2-5.8-15.2-9.1c6.8-17.8,11.4-36.3,13.7-55.1c1.2-9,6.6-15.1,14-19.7
		c4-2.5,8-4.7,12.1-7c6.8-3.8,12.7-8.4,16.8-15.3c2.8-4.7,6.4-4.8,9.4-0.3c8.8,13,16.7,26.6,17.5,42.9c0.3,6.3-1.2,12.7-1.8,19.1
		l-1.8,0.3c-2.6-3.7-4.8-7.7-7.9-11c-2.5-2.7-5.7-4.7-8.9-6.6c-4.2-2.6-8.6-4.9-13-7.1c-4.3-2.2-8.7-4-13.2-5.6
		c-2.8-0.9-4.8,0.3-5.8,3.7c-3,10.1-3.9,20.2-1.2,30.5c0.4,1.9,0.2,3.9-0.6,5.7c-1.8,4.1-3.8,8.1-6.2,11.9
		C338.1,270.1,334.2,277.1,334.5,285.8z"/>
	<path class="st0" d="M340.2,199.7c-10.7,7.3-12.4,18.3-14.7,29.4c-3.2,15-7.4,29.7-11.2,44.5c-0.3,0.7-0.6,1.4-1,2.1
		c-12.5-2.3-17.6-8.4-17.8-20.4c0-3.7-0.2-7.3-0.7-10.9c-0.7-4.9-3.7-9.1-8-11.5c-5.8-3.4-7-6.7-4.4-13c1.5-3.5,4-6.5,6-9.7
		c3.4-5.5,6.7-11,10-16.6c1-1.7,1.7-3.6,2.7-5.4c3.9-6.9,9-8.7,16.4-5.7C326.3,186.1,333.2,192.3,340.2,199.7z"/>
	<path class="st0" d="M429.2,194.8l-17.1,20.3c-5.7-11.3-10.9-22.5-16.8-33.3c-2.1-3.7-5-7.1-8.3-9.8c-4.9-4-11-3.3-14.3,2.1
		c-6.7,10.8-17.5,15.9-27.9,21.9c-4.2-3.5-8.3-6.9-12.2-10.5c-0.9-0.9-1.3-2.1-1.2-3.3c4-14.5,8.2-29,12.4-43.4
		c4.5,4.2,9.1,8.7,14,12.8c2.6,2.1,5.5,3.7,8.6,4.9c7.7,3.1,12,1.5,19-6.6C398.9,165.6,409.8,183.8,429.2,194.8z"/>
	<path class="st0" d="M443.5,185.9c0.7,12.2,1.7,24.5,1.8,36.7c0.2,8.9-3.9,17.3-11,22.5c-3,2.4-6.1,4.6-9.4,6.6
		c-11.5,6.9-19.7,16.8-26.2,28.2c-2.9,5-5.8,10.1-9.2,14.9c-2.1,3.2-4.7,6-7.8,8.3c-7.4,5.5-17.2,2.5-20.8-5.9
		c-1.1-2.5-0.8-3.7,2-4.9c19.1-8.1,32.8-22.1,41.8-40.4c3.6-7.4,4.5-16.1,6.7-24.3c0.3-1.2,0.3-2.9,1.1-3.6
		C425.1,213.3,434.3,200,443.5,185.9z"/>
	<path class="st0" d="M481.9,177.5c-5.9,17.3-16.1,32.8-29.5,45.2l-3.6-50.3c-4.7-2.2-7.6-1.8-9.5,3.4c-1.4,3.8-3.8,7.3-6.1,11.5
		L410.6,168c11.4-9.4,22.2-18.5,33.2-27.4c3-2.4,5-0.5,6.8,2.2c4.5,6.7,8.8,13.8,14.2,19.8C469.6,168,475.7,172.2,481.9,177.5z"/>
	<path class="st0" d="M209.6,236.5c16.1,4.5,30.2,2.5,45-4.3l2.5,20.3c-3.1,0.6-5.5,1.3-7.9,1.4c-4.8,0.2-5.2,3-4.5,6.8
		c3.6,20.2,14.1,35.6,31.8,46.1c1.9,1.1,3.8,2.1,5.9,3.3c-1.6,1.7-3,3.3-4.5,4.9c-4.1,4.2-8,5.1-12.4,1.1
		c-15.2-13.6-33.2-24.8-40.7-45.5c-3.1-8.5-8-16.4-11.9-24.7C211.7,243.3,211,240.5,209.6,236.5z"/>
	<path class="st0" d="M303.1,372.8c0.6,0.2,1.3,0.5,1.9,0.8c7.7,4.9,15.9,5.7,23.7,1.3c13.7-7.7,25.8-5.7,38.1,3.1
		c4.5,3.2,10,5,15,7.4c-2.8,4.8-7.7,7-14,5c-4.8-1.5-8.3-1.5-11.6,3.1c-2.8,3.9-8.5,3.2-12-1c-1.7-2.3-3.2-4.7-4.5-7.2
		c-2.2-3.9-5.3-4.7-9.2-2.7c-0.9,0.4-1.8,0.9-2.6,1.4C318.4,391.5,307.8,387.1,303.1,372.8z"/>
	<path class="st0" d="M253.1,317.6c-3.8,2.5-7.3,5.6-11.3,7.4s-6.7-0.2-7.4-4.6c-0.3-1.8-0.5-3.6-0.6-5.5c-0.3-3-1.8-4.9-5-5.2
		c-5.9-0.5-9.5-4.2-10.9-9.5c-1.8-6.7-3-13.6-4.3-20.5c-0.5-2.9-1.2-5-4.3-6.5c-6.4-3.2-7.8-9.7-8.4-16.1
		c-0.4-5.4-0.2-10.8,0.4-16.1c13.2,27.9,23,58,52.4,74.7L253.1,317.6z"/>
	<path class="st0" d="M299.6,370.1c-11.1,4.9-18.8,2.5-24.8-7.5c-2-3.3-4.2-5.8-8.5-5.8c-9.5,0.1-11.9-2.2-12.8-11.6
		c-0.1-1.5,0-2.9,0-4.4C275.3,340.4,286.9,355.7,299.6,370.1z"/>
	<path class="st0" d="M343,287.5c-2.3-13.5,6.4-22.6,10.5-32.9l23.3,19.1C367.4,282.2,356.5,287.5,343,287.5z"/>
	<path class="st0" d="M352.4,238.9c0.2-2.2,0.2-4,0.5-5.8c0.9-5.4,1.9-10.7,3-17.4c4.1,2,7.4,3.5,10.7,5.2c5.4,2.8,11,5.4,16.1,8.7
		c3.5,2.2,6.2,5.5,10.2,9.1c-5.4,1.3-9.2,2.2-13,3.1c-0.8,0.2-1.6,0.1-2.3-0.2C370.1,235.1,361.7,235.3,352.4,238.9z"/>
	<path class="st0" d="M399.4,245.3l-16,23.2l-17.4-10.9C371.7,248.9,386.1,243.5,399.4,245.3z"/>
	<path class="st0" d="M212,370.6c-2.1,2.4-3.8,5.7-6.5,6.9c-3.5,1.6-6.7-0.8-8.6-4.2c-3.6-6.4-2.9-13.2-1.2-19.9
		c0.2-0.8,2.8-2,3.9-1.6C204.5,353.5,211,364.2,212,370.6z"/>
	<path class="st0" d="M216.2,336.2c0-1.3,0-2.7,0.2-4c0.6-2.5,2.5-3.5,4.3-1.6c3.4,3.5,6.6,7.4,9.3,11.5c1.6,2.5,1.8,5.8-1.8,7.7
		c-3.4,1.7-6.9,1.5-8.7-1.9s-2.7-7.6-4-11.5L216.2,336.2z"/>
	<path class="st0" d="M353.4,244.7c7.1-4.1,13.1-4,19.5-0.2l-11.5,9.4L353.4,244.7z"/>
</g>
</svg>
